<svg width="21" height="13" viewBox="0 0 21 13" fill="none" xmlns="http://www.w3.org/2000/svg">
<path d="M19.1818 2.84167H1.81813C1.26334 2.84167 0.813721 2.39196 0.813721 1.83722C0.813721 1.28248 1.26343 0.832764 1.81813 0.832764H19.1817C19.7365 0.832764 20.1861 1.28252 20.1861 1.83722C20.1861 2.39196 19.7365 2.84167 19.1818 2.84167Z" fill="#B3B3B8"/>
<path d="M16.4064 7.50445H4.59352C4.03878 7.50445 3.58911 7.05469 3.58911 6.49995C3.58911 5.94521 4.03882 5.49554 4.59352 5.49554H16.4064C16.9611 5.49554 17.4108 5.94526 17.4108 6.49995C17.4109 7.05474 16.961 7.50445 16.4064 7.50445Z" fill="#B3B3B8"/>
<path d="M14.0043 12.1672H6.99554C6.44076 12.1672 5.99109 11.7175 5.99109 11.1628C5.99109 10.608 6.4408 10.1584 6.99554 10.1584H14.0043C14.559 10.1584 15.0087 10.6081 15.0087 11.1628C15.0087 11.7175 14.5589 12.1672 14.0043 12.1672Z" fill="#B3B3B8"/>
</svg>
