<svg width="16" height="16" viewBox="0 0 16 16" fill="none" xmlns="http://www.w3.org/2000/svg">
<path d="M4.88889 0H2.22222C1.63285 0 1.06762 0.234126 0.650874 0.650874C0.234126 1.06762 0 1.63285 0 2.22222C0 2.81159 0.234126 3.37682 0.650874 3.79357C1.06762 4.21032 1.63285 4.44444 2.22222 4.44444H4.88889C5.47826 4.44444 6.04349 4.21032 6.46024 3.79357C6.87699 3.37682 7.11111 2.81159 7.11111 2.22222C7.11111 1.63285 6.87699 1.06762 6.46024 0.650874C6.04349 0.234126 5.47826 0 4.88889 0ZM4.88889 3.55556H2.22222C1.8686 3.55556 1.52946 3.41508 1.27941 3.16503C1.02936 2.91498 0.888889 2.57584 0.888889 2.22222C0.888889 1.8686 1.02936 1.52946 1.27941 1.27941C1.52946 1.02936 1.8686 0.888889 2.22222 0.888889H4.88889C5.24251 0.888889 5.58165 1.02936 5.8317 1.27941C6.08175 1.52946 6.22222 1.8686 6.22222 2.22222C6.22222 2.57584 6.08175 2.91498 5.8317 3.16503C5.58165 3.41508 5.24251 3.55556 4.88889 3.55556ZM4.88889 6.22222H2.22222C1.63285 6.22222 1.06762 6.45635 0.650874 6.8731C0.234126 7.28984 0 7.85507 0 8.44444V13.7778C0 14.3671 0.234126 14.9324 0.650874 15.3491C1.06762 15.7659 1.63285 16 2.22222 16H4.88889C5.47826 16 6.04349 15.7659 6.46024 15.3491C6.87699 14.9324 7.11111 14.3671 7.11111 13.7778V8.44444C7.11111 7.85507 6.87699 7.28984 6.46024 6.8731C6.04349 6.45635 5.47826 6.22222 4.88889 6.22222ZM6.22222 13.7778C6.22222 14.1314 6.08175 14.4705 5.8317 14.7206C5.58165 14.9706 5.24251 15.1111 4.88889 15.1111H2.22222C1.8686 15.1111 1.52946 14.9706 1.27941 14.7206C1.02936 14.4705 0.888889 14.1314 0.888889 13.7778V8.44444C0.888889 8.09082 1.02936 7.75168 1.27941 7.50164C1.52946 7.25159 1.8686 7.11111 2.22222 7.11111H4.88889C5.24251 7.11111 5.58165 7.25159 5.8317 7.50164C6.08175 7.75168 6.22222 8.09082 6.22222 8.44444V13.7778ZM13.7778 11.5556H11.1111C10.5217 11.5556 9.95651 11.7897 9.53976 12.2064C9.12302 12.6232 8.88889 13.1884 8.88889 13.7778C8.88889 14.3671 9.12302 14.9324 9.53976 15.3491C9.95651 15.7659 10.5217 16 11.1111 16H13.7778C14.3671 16 14.9324 15.7659 15.3491 15.3491C15.7659 14.9324 16 14.3671 16 13.7778C16 13.1884 15.7659 12.6232 15.3491 12.2064C14.9324 11.7897 14.3671 11.5556 13.7778 11.5556ZM13.7778 15.1111H11.1111C10.7575 15.1111 10.4184 14.9706 10.1683 14.7206C9.91825 14.4705 9.77778 14.1314 9.77778 13.7778C9.77778 13.4242 9.91825 13.085 10.1683 12.835C10.4184 12.5849 10.7575 12.4444 11.1111 12.4444H13.7778C14.1314 12.4444 14.4705 12.5849 14.7206 12.835C14.9706 13.085 15.1111 13.4242 15.1111 13.7778C15.1111 14.1314 14.9706 14.4705 14.7206 14.7206C14.4705 14.9706 14.1314 15.1111 13.7778 15.1111ZM13.7778 0H11.1111C10.5217 0 9.95651 0.234126 9.53976 0.650874C9.12302 1.06762 8.88889 1.63285 8.88889 2.22222V7.55556C8.88889 8.14493 9.12302 8.71016 9.53976 9.1269C9.95651 9.54365 10.5217 9.77778 11.1111 9.77778H13.7778C14.3671 9.77778 14.9324 9.54365 15.3491 9.1269C15.7659 8.71016 16 8.14493 16 7.55556V2.22222C16 1.63285 15.7659 1.06762 15.3491 0.650874C14.9324 0.234126 14.3671 0 13.7778 0ZM15.1111 7.55556C15.1111 7.90918 14.9706 8.24832 14.7206 8.49836C14.4705 8.74841 14.1314 8.88889 13.7778 8.88889H11.1111C10.7575 8.88889 10.4184 8.74841 10.1683 8.49836C9.91825 8.24832 9.77778 7.90918 9.77778 7.55556V2.22222C9.77778 1.8686 9.91825 1.52946 10.1683 1.27941C10.4184 1.02936 10.7575 0.888889 11.1111 0.888889H13.7778C14.1314 0.888889 14.4705 1.02936 14.7206 1.27941C14.9706 1.52946 15.1111 1.8686 15.1111 2.22222V7.55556Z" fill="black"/>
</svg>
