<svg width="12" height="14" viewBox="0 0 12 14" fill="none" xmlns="http://www.w3.org/2000/svg">
<path d="M4.66667 11.2C4.84348 11.2 5.01305 11.1263 5.13807 10.995C5.2631 10.8637 5.33333 10.6857 5.33333 10.5V6.3C5.33333 6.11435 5.2631 5.9363 5.13807 5.80503C5.01305 5.67375 4.84348 5.6 4.66667 5.6C4.48986 5.6 4.32029 5.67375 4.19526 5.80503C4.07024 5.9363 4 6.11435 4 6.3V10.5C4 10.6857 4.07024 10.8637 4.19526 10.995C4.32029 11.1263 4.48986 11.2 4.66667 11.2ZM11.3333 2.8H8.66667V2.1C8.66667 1.54305 8.45595 1.0089 8.08088 0.615076C7.70581 0.221249 7.1971 0 6.66667 0H5.33333C4.8029 0 4.29419 0.221249 3.91912 0.615076C3.54405 1.0089 3.33333 1.54305 3.33333 2.1V2.8H0.666667C0.489856 2.8 0.320286 2.87375 0.195262 3.00503C0.0702379 3.1363 0 3.31435 0 3.5C0 3.68565 0.0702379 3.8637 0.195262 3.99497C0.320286 4.12625 0.489856 4.2 0.666667 4.2H1.33333V11.9C1.33333 12.457 1.54405 12.9911 1.91912 13.3849C2.29419 13.7788 2.8029 14 3.33333 14H8.66667C9.1971 14 9.70581 13.7788 10.0809 13.3849C10.456 12.9911 10.6667 12.457 10.6667 11.9V4.2H11.3333C11.5101 4.2 11.6797 4.12625 11.8047 3.99497C11.9298 3.8637 12 3.68565 12 3.5C12 3.31435 11.9298 3.1363 11.8047 3.00503C11.6797 2.87375 11.5101 2.8 11.3333 2.8ZM4.66667 2.1C4.66667 1.91435 4.7369 1.7363 4.86193 1.60503C4.98695 1.47375 5.15652 1.4 5.33333 1.4H6.66667C6.84348 1.4 7.01305 1.47375 7.13807 1.60503C7.2631 1.7363 7.33333 1.91435 7.33333 2.1V2.8H4.66667V2.1ZM9.33333 11.9C9.33333 12.0857 9.2631 12.2637 9.13807 12.395C9.01305 12.5263 8.84348 12.6 8.66667 12.6H3.33333C3.15652 12.6 2.98695 12.5263 2.86193 12.395C2.7369 12.2637 2.66667 12.0857 2.66667 11.9V4.2H9.33333V11.9ZM7.33333 11.2C7.51014 11.2 7.67971 11.1263 7.80474 10.995C7.92976 10.8637 8 10.6857 8 10.5V6.3C8 6.11435 7.92976 5.9363 7.80474 5.80503C7.67971 5.67375 7.51014 5.6 7.33333 5.6C7.15652 5.6 6.98695 5.67375 6.86193 5.80503C6.73691 5.9363 6.66667 6.11435 6.66667 6.3V10.5C6.66667 10.6857 6.73691 10.8637 6.86193 10.995C6.98695 11.1263 7.15652 11.2 7.33333 11.2Z" fill="white" fill-opacity="0.53"/>
</svg>
