<svg width="15" height="15" viewBox="0 0 15 15" fill="none" xmlns="http://www.w3.org/2000/svg">
<path d="M14.4831 8.53711L13.675 9.16559L7.84133 13.8164L7.26049 14.2689C7.20998 14.3192 7.15947 14.3192 7.08371 14.2941C6.60389 14.0678 6.09881 13.8667 5.61899 13.6404C4.93713 13.3388 1.22481 11.9309 0.972274 11.8052C0.820751 11.7298 0.744989 11.579 0.719736 11.403C0.61872 11.0259 0.669228 10.5985 0.74499 10.2215C0.74499 10.1963 0.74499 10.1963 0.770243 10.1712C0.719736 10.146 0.643974 10.0958 0.593466 10.0706C0.669228 10.1209 0.770243 10.146 0.846005 10.1963C0.997528 10.2969 1.14905 10.3472 1.32583 10.4477C1.57837 10.5734 5.6695 12.2075 6.02305 12.3583C6.3261 12.5092 6.67965 12.6097 6.9827 12.7354C7.20998 12.836 7.43727 12.7857 7.61404 12.6348C7.81608 12.4589 8.01811 12.2829 8.22014 12.1069L14.8619 6.82762C14.9882 6.72706 15.0134 6.52594 14.9124 6.40025C14.8114 6.27455 14.6094 6.24941 14.4831 6.34997L13.675 6.95332L7.84133 11.6041L7.26049 12.0566C7.20998 12.1069 7.15947 12.1069 7.08371 12.0818C6.60389 11.8555 6.09881 11.6544 5.61899 11.4282C4.93713 11.1265 1.22481 9.71866 0.972274 9.59297C0.820751 9.51755 0.744989 9.36671 0.719736 9.19073C0.61872 8.81364 0.669228 8.38627 0.74499 8.00918C0.770243 8.00918 0.770243 8.00918 0.795497 8.03432C0.947021 8.13487 1.09854 8.18515 1.27532 8.28571C1.52786 8.41141 5.61899 10.0455 5.97254 10.1963C6.27559 10.3472 6.62914 10.4477 6.93219 10.5734C7.15947 10.674 7.38676 10.6237 7.56354 10.4728C7.76557 10.2969 7.9676 10.1209 8.16963 9.94492L14.8114 4.66562C14.9377 4.56506 14.9629 4.36395 14.8619 4.23825C14.7609 4.11255 14.5589 4.08741 14.4326 4.18797L13.6245 4.81646L7.76557 9.41699L7.18473 9.8695C7.13422 9.91978 7.08371 9.91978 7.00795 9.89464C6.52813 9.66839 6.02305 9.46727 5.54323 9.24101C4.88663 8.93934 1.17431 7.53153 0.921767 7.40583C0.770243 7.33041 0.694482 7.17957 0.669228 7.0036C0.568212 6.6265 0.61872 6.19913 0.669228 5.82204C0.694482 5.64606 0.871259 5.5455 1.04804 5.62092C1.04804 5.62092 6.07356 7.5818 6.12407 7.60694C6.22508 7.63208 6.70491 7.80806 6.75541 7.8332C6.78067 7.8332 6.78067 7.85834 6.80592 7.85834C6.85643 7.88348 6.93219 7.88348 6.9827 7.88348C7.05846 7.88348 7.10897 7.8332 7.18473 7.78292C7.23524 7.75778 7.26049 7.7075 7.311 7.68236C7.91709 7.22985 8.52319 6.77734 9.10402 6.32483C9.2808 6.19913 9.48283 6.04829 9.65961 5.9226C9.68486 5.9226 9.68486 5.89746 9.71012 5.89746C10.2404 5.49522 10.7455 5.11813 11.2759 4.7159C11.3011 4.69076 11.3264 4.66562 11.3516 4.64048C12.1597 4.03713 12.9426 3.43378 13.7507 2.85557C14.0285 2.65446 14.0285 2.32764 13.675 2.20195C13.3972 2.10139 13.1194 1.97569 12.8416 1.87513C12.4375 1.7243 12.0082 1.54832 11.6042 1.39748C10.9223 1.14609 10.2657 0.869552 9.58385 0.618157C9.07877 0.44218 8.57369 0.266203 8.06861 0.0902266C7.61404 -0.0606105 7.18473 -0.035471 6.78067 0.266203C6.75541 0.266203 6.75541 0.291343 6.73016 0.291343C6.09881 0.718715 5.46746 1.14609 4.81086 1.57346C4.10376 2.05111 3.37139 2.52876 2.66428 3.03155C2.53801 3.10697 2.41175 3.20753 2.31073 3.28295C1.70464 3.71032 1.1238 4.13769 0.542958 4.56506L0.517705 4.5902C0.340927 4.69076 0.239912 4.86674 0.16415 5.09299C0.16415 5.11813 0.138896 5.16841 0.138896 5.19355C0.0883886 5.34439 0.0631347 5.52036 0.0378808 5.6712C-0.0126269 5.97287 -0.0126269 6.27455 0.0378808 6.60136C0.0631347 6.7522 0.0883886 6.90304 0.113642 7.02873C0.138896 7.15443 0.16415 7.30527 0.189404 7.43097C0.16415 7.5818 0.113642 7.7075 0.113642 7.85834C0.0631347 8.16001 0.0631347 8.46169 0.113642 8.7885C0.138896 8.93934 0.16415 9.09018 0.189404 9.21587C0.214658 9.31643 0.239912 9.41699 0.239912 9.54269C0.239912 9.56783 0.214658 9.59297 0.214658 9.61811C0.16415 9.76894 0.138896 9.94492 0.113642 10.0958C0.0631347 10.3974 0.0631347 10.6991 0.113642 11.0259C0.138896 11.1768 0.16415 11.3276 0.189404 11.4533C0.214658 11.6041 0.239912 11.7801 0.29042 11.9309C0.340927 12.0566 0.416689 12.1572 0.517705 12.2326C0.643974 12.3332 0.770243 12.3332 0.871259 12.4086C1.02278 12.5092 1.17431 12.5594 1.35108 12.66C1.60362 12.7857 5.69475 14.4198 6.0483 14.5706C6.35135 14.7214 6.70491 14.822 7.00795 14.9477C7.23524 15.0482 7.46252 14.998 7.6393 14.8471C7.84133 14.6712 8.04336 14.4952 8.24539 14.3192L14.8872 9.0399C15.0134 8.93934 15.0387 8.73822 14.9377 8.61252C14.8114 8.43655 14.6094 8.41141 14.4831 8.53711Z" fill="black" fill-opacity="0.69"/>
</svg>
