<svg width="17" height="13" viewBox="0 0 17 13" fill="none" xmlns="http://www.w3.org/2000/svg">
<g clip-path="url(#clip0_68_84)">
<path d="M16.6514 -0.1H0.282227C0.0614247 -0.1 -0.1 0.0954207 -0.1 0.31392V3.21646V12.9357C-0.1 13.1542 0.0614245 13.3497 0.282227 13.3497H5.73865H11.1949H16.6514C16.8722 13.3497 17.0336 13.1542 17.0336 12.9357V3.21646V0.31392C17.0336 0.0954209 16.8722 -0.1 16.6514 -0.1ZM0.833406 1.62784C0.833406 1.13079 1.23635 0.727841 1.73341 0.727841H15.2518C15.7488 0.727841 16.1518 1.13078 16.1518 1.62784V1.90254C16.1518 2.39959 15.7488 2.80254 15.2518 2.80254H11.1949H5.73865H1.73341C1.23635 2.80254 0.833406 2.39959 0.833406 1.90254V1.62784ZM0.833406 4.53038C0.833406 4.03332 1.23635 3.63038 1.73341 3.63038H4.45643C4.95348 3.63038 5.35643 4.03332 5.35643 4.53038V11.2256C5.35643 11.7227 4.95348 12.1256 4.45643 12.1256H1.73341C1.23635 12.1256 0.833406 11.7227 0.833406 11.2256V4.53038ZM6.12088 4.53038C6.12088 4.03332 6.52382 3.63038 7.02088 3.63038H9.91271C10.4098 3.63038 10.8127 4.03332 10.8127 4.53038V11.2256C10.8127 11.7227 10.4098 12.1256 9.91271 12.1256H7.02088C6.52382 12.1256 6.12088 11.7227 6.12088 11.2256V4.53038ZM16.1518 11.2256C16.1518 11.7227 15.7488 12.1256 15.2518 12.1256H12.4772C11.9801 12.1256 11.5772 11.7227 11.5772 11.2256V4.53038C11.5772 4.03332 11.9801 3.63038 12.4772 3.63038H15.2518C15.7488 3.63038 16.1518 4.03332 16.1518 4.53038V11.2256Z" fill="black" stroke="black" stroke-width="0.2"/>
<path d="M4.30632 1.35123H1.95251C1.73171 1.35123 1.57029 1.54665 1.57029 1.76515C1.57029 1.98365 1.73171 2.17907 1.95251 2.17907H4.30632C4.52712 2.17907 4.68855 1.98365 4.68855 1.76515C4.68855 1.54665 4.52712 1.35123 4.30632 1.35123ZM7.17103 2.17907H9.76261C9.98341 2.17907 10.1448 1.98365 10.1448 1.76515C10.1448 1.54665 9.98341 1.35123 9.76261 1.35123H7.17103C6.95023 1.35123 6.7888 1.54665 6.7888 1.76515C6.7888 1.98365 6.95023 2.17907 7.17103 2.17907ZM12.6273 2.17907H15.124C15.3448 2.17907 15.5063 1.98365 15.5063 1.76515C15.5063 1.54665 15.3448 1.35123 15.124 1.35123H12.6273C12.4065 1.35123 12.2451 1.54665 12.2451 1.76515C12.2451 1.98365 12.4065 2.17907 12.6273 2.17907Z" fill="black" stroke="black" stroke-width="0.2"/>
<path d="M13 7L13.4293 7.42929C13.4683 7.46834 13.5317 7.46834 13.5707 7.42929L15 6" stroke="black" stroke-width="0.8" stroke-linecap="round"/>
<path d="M13 10L13.4293 10.4293C13.4683 10.4683 13.5317 10.4683 13.5707 10.4293L15 9" stroke="black" stroke-width="0.8" stroke-linecap="round"/>
</g>
<defs>
<clipPath id="clip0_68_84">
<rect width="17" height="13" rx="1" fill="white"/>
</clipPath>
</defs>
</svg>
