<svg width="16" height="16" viewBox="0 0 16 16" fill="none" xmlns="http://www.w3.org/2000/svg">
<path fill-rule="evenodd" clip-rule="evenodd" d="M5.04997 2.58331C5.64673 1.9866 6.40701 1.58023 7.2347 1.41557C8.06238 1.25092 8.92031 1.33537 9.7 1.65825C10.4797 1.98113 11.1462 2.52794 11.6151 3.22955C12.0841 3.93116 12.3345 4.75607 12.3346 5.59997C12.3346 7.60197 12.7633 8.83997 13.154 9.55664C13.35 9.91664 13.5406 10.1513 13.6713 10.2893C13.726 10.3472 13.7846 10.4014 13.8466 10.4513V10.452C13.9636 10.5327 14.0517 10.6487 14.0981 10.783C14.1445 10.9173 14.1467 11.0629 14.1045 11.1986C14.0623 11.3343 13.9779 11.453 13.8635 11.5373C13.7491 11.6216 13.6107 11.6672 13.4686 11.6673H2.66664C2.52448 11.6673 2.38604 11.6219 2.27154 11.5376C2.15704 11.4533 2.07247 11.3347 2.03018 11.199C1.98789 11.0632 1.9901 10.9175 2.03647 10.7831C2.08285 10.6488 2.17097 10.5327 2.28797 10.452H2.28864L2.31731 10.4293C2.34731 10.404 2.39864 10.3586 2.46397 10.2893C2.59464 10.1513 2.78531 9.91597 2.98131 9.55597C3.37197 8.83997 3.79997 7.60264 3.79997 5.59997C3.79997 4.46797 4.24997 3.38331 5.04997 2.58331ZM4.07331 10.3346H12.062C12.0351 10.2886 12.0088 10.2421 11.9833 10.1953C11.4733 9.26197 11.0013 7.79931 11.0013 5.60064C10.9897 4.83024 10.6755 4.09533 10.1266 3.55464C9.57769 3.01394 8.83812 2.71086 8.06764 2.71086C7.29715 2.71086 6.55759 3.01394 6.00868 3.55464C5.45978 4.09533 5.14559 4.83024 5.13397 5.60064C5.13397 7.79931 4.66131 9.26131 4.15197 10.1953C4.12641 10.2423 4.10018 10.289 4.07331 10.3353V10.3346ZM6.69464 12.8253C6.77037 12.7813 6.85401 12.7527 6.94079 12.7411C7.02758 12.7295 7.11581 12.7351 7.20043 12.7575C7.28506 12.78 7.36443 12.8189 7.43402 12.8721C7.5036 12.9252 7.56203 12.9916 7.60597 13.0673C7.65281 13.1483 7.72012 13.2155 7.80116 13.2623C7.88219 13.309 7.97409 13.3336 8.06764 13.3336C8.16119 13.3336 8.25309 13.309 8.33412 13.2623C8.41515 13.2155 8.48247 13.1483 8.52931 13.0673C8.61806 12.9144 8.76394 12.8029 8.93485 12.7576C9.10576 12.7122 9.2877 12.7365 9.44064 12.8253C9.59358 12.9141 9.705 13.0599 9.75038 13.2309C9.79577 13.4018 9.7714 13.5837 9.68264 13.7366C9.51859 14.0197 9.28305 14.2546 8.99961 14.4179C8.71616 14.5813 8.39477 14.6672 8.06764 14.6672C7.74051 14.6672 7.41912 14.5813 7.13567 14.4179C6.85223 14.2546 6.61668 14.0197 6.45264 13.7366C6.40868 13.6609 6.38007 13.5773 6.36844 13.4905C6.35681 13.4037 6.36239 13.3155 6.38487 13.2308C6.40734 13.1462 6.44626 13.0668 6.49941 12.9973C6.55256 12.9277 6.6189 12.8692 6.69464 12.8253Z" fill="black"/>
</svg>
