<svg width="24" height="22" viewBox="0 0 24 22" fill="none" xmlns="http://www.w3.org/2000/svg">
<path d="M23.1583 10.1169C22.9363 10.1169 22.7234 10.1978 22.5664 10.3417C22.4095 10.4856 22.3213 10.6808 22.3213 10.8844V11.2558H1.6741V5.31479C1.6741 2.09767 2.28793 1.53488 5.79684 1.53488H7.53343C7.75543 1.53488 7.96834 1.45403 8.12531 1.31011C8.28229 1.16618 8.37048 0.97098 8.37048 0.767442C8.37048 0.563904 8.28229 0.368702 8.12531 0.224779C7.96834 0.0808553 7.75543 0 7.53343 0H5.79684C1.3549 0 0 1.24223 0 5.31479V11.7961C0 11.8677 0 11.9322 0 12.0007C0 12.0079 0 12.014 0 12.0212C0 12.0284 0 12.0376 0 12.0468C0.0580353 15.9127 1.45088 17.1088 5.79126 17.1088H11.1606V20.4651H6.9754C6.7534 20.4651 6.54049 20.546 6.38352 20.6899C6.22654 20.8338 6.13835 21.029 6.13835 21.2326C6.13835 21.4361 6.22654 21.6313 6.38352 21.7752C6.54049 21.9191 6.7534 22 6.9754 22H17.02C17.242 22 17.4549 21.9191 17.6119 21.7752C17.7688 21.6313 17.857 21.4361 17.857 21.2326C17.857 21.029 17.7688 20.8338 17.6119 20.6899C17.4549 20.546 17.242 20.4651 17.02 20.4651H12.8347V17.1109H18.1985C22.5445 17.1109 23.9318 15.9147 23.9898 12.0488C23.9898 12.0396 23.9898 12.0325 23.9898 12.0233C23.9898 12.014 23.9898 12.01 23.9898 12.0028C23.9898 11.9322 23.9898 11.8677 23.9898 11.7981V10.8864C23.9904 10.6834 23.9032 10.4885 23.7474 10.3442C23.5916 10.2 23.3797 10.1183 23.1583 10.1169ZM18.1985 15.576H5.79684C2.68971 15.576 1.85378 15.1288 1.70311 12.7907H22.2923C22.1416 15.1288 21.3057 15.576 18.1985 15.576ZM23.1896 1.43358C22.9102 1.31648 22.6006 1.27358 22.296 1.30976C21.9914 1.34593 21.704 1.45974 21.4664 1.63823L21.2499 1.7774C21.0511 1.26336 20.684 0.818184 20.1987 0.502771C19.7135 0.187359 19.1338 0.0171205 18.5389 0.0153488H13.405C12.5914 0.0164315 11.8114 0.313248 11.2361 0.840733C10.6608 1.36822 10.337 2.08333 10.3359 2.8293V6.42809C10.3089 6.78249 10.3652 7.13807 10.5009 7.47082C10.6366 7.80358 10.8487 8.10576 11.1227 8.35696C11.3966 8.60817 11.7262 8.80256 12.0892 8.927C12.4521 9.05144 12.8399 9.10305 13.2265 9.07833H18.5367C19.1319 9.07698 19.7121 8.90693 20.1978 8.59149C20.6835 8.27605 21.051 7.83064 21.2499 7.31628L21.4664 7.45544C21.7799 7.67002 22.1579 7.79079 22.549 7.8013C22.7721 7.80227 22.992 7.75308 23.1896 7.65805C23.4543 7.51591 23.6702 7.30848 23.8126 7.05937C23.9551 6.81027 24.0184 6.5295 23.9954 6.24902V2.84363C24.0182 2.56303 23.9548 2.28219 23.8124 2.03295C23.67 1.78371 23.4542 1.57607 23.1896 1.43358ZM19.7554 3.13423V6.42809C19.7552 6.72382 19.6269 7.00736 19.3988 7.21646C19.1707 7.42557 18.8615 7.54317 18.5389 7.54344H13.2254C12.703 7.54344 12.0088 7.42781 12.0088 6.42809V2.82828C12.0094 2.48921 12.1566 2.16419 12.4181 1.92444C12.6796 1.68468 13.0341 1.54975 13.4039 1.54921H18.5378C18.8604 1.54948 19.1696 1.66708 19.3977 1.87619C19.6258 2.0853 19.754 2.36883 19.7543 2.66456L19.7554 3.13423ZM22.3224 6.13033L21.4295 5.55833V3.53023L22.3224 2.95823V6.13033Z" fill="black"/>
</svg>
