<svg width="11" height="10" viewBox="0 0 11 10" fill="none" xmlns="http://www.w3.org/2000/svg">
<path d="M5.5 0C2.85098 0 0 0.55875 0 1.78571V8.21429C0 9.44125 2.85098 10 5.5 10C8.14902 10 11 9.44125 11 8.21429V1.78571C11 0.55875 8.14902 0 5.5 0ZM10.2667 6.07143C10.2667 6.39179 8.64494 7.14286 5.5 7.14286C2.35506 7.14286 0.733333 6.39179 0.733333 6.07143C0.733333 5.53776 1.327 5.16637 1.84242 5.30472C2.87502 5.58191 4.21122 5.71429 5.5 5.71429C6.78878 5.71429 8.12498 5.58191 9.15758 5.30472C9.673 5.16637 10.2667 5.53776 10.2667 6.07143ZM10.2667 3.92857C10.2667 4.24893 8.64494 5 5.5 5C2.35506 5 0.733333 4.24893 0.733333 3.92857C0.733333 3.3949 1.327 3.02351 1.84242 3.16187C2.87502 3.43905 4.21122 3.57143 5.5 3.57143C6.78878 3.57143 8.12498 3.43905 9.15758 3.16187C9.673 3.02351 10.2667 3.3949 10.2667 3.92857ZM5.5 0.714286C8.64494 0.714286 10.2667 1.46536 10.2667 1.78571C10.2667 2.10607 8.64494 2.85714 5.5 2.85714C2.35506 2.85714 0.733333 2.10607 0.733333 1.78571C0.733333 1.46536 2.35506 0.714286 5.5 0.714286ZM5.5 9.28572C2.35506 9.28572 0.733333 8.53464 0.733333 8.21429C0.733333 7.68062 1.327 7.30923 1.84242 7.44758C2.87502 7.72476 4.21122 7.85714 5.5 7.85714C6.78878 7.85714 8.12498 7.72476 9.15758 7.44758C9.673 7.30923 10.2667 7.68062 10.2667 8.21429C10.2667 8.53464 8.64494 9.28572 5.5 9.28572Z" fill="#8D8D8D"/>
<path d="M5.5 0C2.85098 0 0 0.55875 0 1.78571V8.21429C0 9.44125 2.85098 10 5.5 10C8.14902 10 11 9.44125 11 8.21429V1.78571C11 0.55875 8.14902 0 5.5 0ZM10.2667 6.07143C10.2667 6.39179 8.64494 7.14286 5.5 7.14286C2.35506 7.14286 0.733333 6.39179 0.733333 6.07143C0.733333 5.53776 1.327 5.16637 1.84242 5.30472C2.87502 5.58191 4.21122 5.71429 5.5 5.71429C6.78878 5.71429 8.12498 5.58191 9.15758 5.30472C9.673 5.16637 10.2667 5.53776 10.2667 6.07143ZM10.2667 3.92857C10.2667 4.24893 8.64494 5 5.5 5C2.35506 5 0.733333 4.24893 0.733333 3.92857C0.733333 3.3949 1.327 3.02351 1.84242 3.16187C2.87502 3.43905 4.21122 3.57143 5.5 3.57143C6.78878 3.57143 8.12498 3.43905 9.15758 3.16187C9.673 3.02351 10.2667 3.3949 10.2667 3.92857ZM5.5 0.714286C8.64494 0.714286 10.2667 1.46536 10.2667 1.78571C10.2667 2.10607 8.64494 2.85714 5.5 2.85714C2.35506 2.85714 0.733333 2.10607 0.733333 1.78571C0.733333 1.46536 2.35506 0.714286 5.5 0.714286ZM5.5 9.28572C2.35506 9.28572 0.733333 8.53464 0.733333 8.21429C0.733333 7.68062 1.327 7.30923 1.84242 7.44758C2.87502 7.72476 4.21122 7.85714 5.5 7.85714C6.78878 7.85714 8.12498 7.72476 9.15758 7.44758C9.673 7.30923 10.2667 7.68062 10.2667 8.21429C10.2667 8.53464 8.64494 9.28572 5.5 9.28572Z" stroke="black"/>
</svg>
