<svg width="16" height="16" viewBox="0 0 16 16" fill="none" xmlns="http://www.w3.org/2000/svg">
<g clip-path="url(#clip0_68_51)">
<mask id="path-1-outside-1_68_51" maskUnits="userSpaceOnUse" x="-1" y="-1" width="18" height="18" fill="black">
<rect fill="white" x="-1" y="-1" width="18" height="18"/>
<path d="M8.66667 16H7.33333C6.782 16 6.33333 15.5513 6.33333 15V14.4238C6.33333 14.0299 6.06989 13.6896 5.70598 13.5387C5.3417 13.3876 4.91429 13.4418 4.63548 13.7207L4.22833 14.128C3.85033 14.506 3.192 14.5053 2.814 14.128L1.871 13.1853C1.682 12.9967 1.578 12.7453 1.578 12.4783C1.578 12.2113 1.682 11.96 1.871 11.7713L2.279 11.3632C2.55751 11.0846 2.61144 10.6576 2.4606 10.2937C2.3098 9.9299 1.96978 9.66633 1.57595 9.66633H1C0.448667 9.66633 0 9.21767 0 8.66633V7.333C0 7.06567 0.104 6.81467 0.292667 6.626C0.385367 6.53286 0.495606 6.45901 0.617013 6.40872C0.73842 6.35843 0.868589 6.33269 1 6.333H1.57662C1.97036 6.333 2.31024 6.07028 2.46098 5.70654C2.61189 5.34236 2.55806 4.91466 2.27937 4.63586L1.872 4.22833C1.68469 4.04072 1.57949 3.78644 1.57949 3.52133C1.57949 3.25622 1.68469 3.00195 1.872 2.81433L2.81467 1.87133C3.19233 1.494 3.851 1.49333 4.229 1.87133L4.63694 2.27928C4.9155 2.55784 5.34243 2.61197 5.70634 2.4611C6.07003 2.31032 6.33333 1.9703 6.33333 1.57659V1C6.33333 0.448667 6.782 0 7.33333 0H8.66667C9.218 0 9.66667 0.448667 9.66667 1V1.57656C9.66667 1.9703 9.93 2.31036 10.2937 2.46117C10.6576 2.61205 11.0845 2.55786 11.363 2.2793L11.771 1.87133C12.149 1.494 12.8073 1.49333 13.1853 1.87133L14.1283 2.814C14.3173 3.00267 14.4213 3.254 14.4213 3.521C14.4213 3.788 14.3173 4.03933 14.1283 4.228L13.7209 4.63561C13.4423 4.91434 13.3883 5.34149 13.5392 5.70555C13.6901 6.06943 14.0302 6.333 14.4242 6.333H15C15.5513 6.333 16 6.78167 16 7.333V8.66633C16 8.93367 15.896 9.18467 15.7073 9.37333C15.5187 9.562 15.2673 9.66633 15 9.66633H14.4238C14.0299 9.66633 13.6896 9.9298 13.5387 10.2937C13.3878 10.6578 13.4419 11.085 13.7205 11.3637L14.128 11.7713C14.3153 11.9589 14.4205 12.2132 14.4205 12.4783C14.4205 12.7434 14.3153 12.9977 14.128 13.1853L13.1853 14.1283C12.8073 14.506 12.149 14.506 11.771 14.1283L11.3639 13.7209C11.0852 13.4421 10.6581 13.3878 10.294 13.5388C9.93027 13.6896 9.667 14.0297 9.667 14.4234V15C9.66656 15.2651 9.56102 15.5193 9.3735 15.7067C9.18599 15.8942 8.93181 15.9996 8.66667 16ZM5.05233 12.4993C5.112 12.4993 5.17233 12.5153 5.226 12.548C5.69639 12.836 6.20891 13.0487 6.745 13.1783C6.81769 13.1959 6.88235 13.2374 6.9286 13.2962C6.97485 13.3549 7 13.4276 7 13.5023V15C7 15.184 7.14967 15.3333 7.33333 15.3333H8.66667C8.85033 15.3333 9 15.184 9 15V13.5023C9 13.4276 9.02515 13.3549 9.0714 13.2962C9.11765 13.2374 9.18231 13.1959 9.255 13.1783C9.79095 13.0487 10.3034 12.8362 10.7737 12.5483C10.9057 12.468 11.0743 12.4883 11.1833 12.597L12.2427 13.6567C12.3677 13.7813 12.589 13.782 12.7143 13.6567L13.657 12.7137C13.7195 12.6512 13.7546 12.5664 13.7546 12.478C13.7546 12.3896 13.7195 12.3048 13.657 12.2423L12.5973 11.1827C12.5444 11.1298 12.5108 11.0606 12.502 10.9863C12.4932 10.912 12.5096 10.8368 12.5487 10.773C12.8365 10.3027 13.0489 9.79029 13.1783 9.25433C13.1958 9.18158 13.2373 9.11684 13.2961 9.07053C13.3549 9.02421 13.4275 8.99902 13.5023 8.999H15C15.0438 8.99918 15.0871 8.9907 15.1276 8.97405C15.1681 8.9574 15.2049 8.93291 15.2359 8.902C15.2668 8.87108 15.2914 8.83434 15.3081 8.7939C15.3249 8.75345 15.3334 8.7101 15.3333 8.66633V7.333C15.3333 7.149 15.1837 6.99967 15 6.99967H13.5023C13.4275 6.99971 13.3548 6.97454 13.296 6.92821C13.2373 6.88189 13.1958 6.81711 13.1783 6.74433C13.049 6.20836 12.8365 5.69593 12.5487 5.22567C12.5096 5.16183 12.4932 5.08671 12.502 5.0124C12.5108 4.93809 12.5444 4.86891 12.5973 4.816L13.657 3.75633C13.719 3.694 13.7547 3.60833 13.7547 3.52067C13.7547 3.433 13.719 3.347 13.657 3.285L12.714 2.34233C12.6504 2.28186 12.5659 2.24814 12.4782 2.24814C12.3904 2.24814 12.306 2.28186 12.2423 2.34233L11.1827 3.402C11.1299 3.45518 11.0607 3.48894 10.9863 3.49778C10.9119 3.50662 10.8367 3.49001 10.773 3.45067C10.3029 3.16295 9.79072 2.9505 9.255 2.821C9.18234 2.80361 9.11765 2.76225 9.07139 2.70359C9.02512 2.64492 8.99997 2.57238 9 2.49767V1C9 0.816 8.85033 0.666667 8.66667 0.666667H7.33333C7.14967 0.666667 7 0.816 7 1V2.49767C7 2.57245 6.97485 2.64506 6.9286 2.70382C6.88235 2.76259 6.81769 2.80409 6.745 2.82167C6.20906 2.95115 5.69666 3.1636 5.22633 3.45133C5.16257 3.49042 5.08749 3.50687 5.01322 3.49804C4.93895 3.48921 4.86983 3.45561 4.817 3.40267L3.75733 2.343C3.69371 2.28253 3.60928 2.24881 3.5215 2.24881C3.43372 2.24881 3.34929 2.28253 3.28567 2.343L2.34333 3.28567C2.28084 3.34818 2.24574 3.43295 2.24574 3.52133C2.24574 3.60972 2.28084 3.69449 2.34333 3.757L3.403 4.81667C3.45592 4.86958 3.4895 4.93876 3.49832 5.01307C3.50715 5.08738 3.49072 5.1625 3.45167 5.22633C3.16388 5.69651 2.95142 6.20882 2.822 6.74467C2.80449 6.81742 2.76301 6.88216 2.70424 6.92847C2.64547 6.97479 2.57283 6.99998 2.498 7H1C0.956205 6.99982 0.912808 7.00832 0.872308 7.02498C0.831808 7.04165 0.795007 7.06617 0.764023 7.09712C0.73304 7.12807 0.708486 7.16485 0.691777 7.20533C0.675068 7.24582 0.666534 7.2892 0.666667 7.333V8.66633C0.666667 8.85033 0.816333 8.99967 1 8.99967H2.49767C2.65167 8.99967 2.78567 9.105 2.82167 9.255C2.95114 9.79083 3.1636 10.3031 3.45133 10.7733C3.49038 10.8372 3.50682 10.9123 3.49799 10.9866C3.48916 11.0609 3.45559 11.1301 3.40267 11.183L2.343 12.243C2.281 12.3053 2.24533 12.391 2.24533 12.4787C2.24533 12.5663 2.281 12.6523 2.343 12.7143L3.286 13.657C3.34963 13.7175 3.43405 13.7512 3.52183 13.7512C3.60961 13.7512 3.69404 13.7175 3.75767 13.657L4.817 12.5973C4.84777 12.5662 4.88442 12.5415 4.92482 12.5247C4.96522 12.5079 5.00857 12.4992 5.05233 12.4993Z"/>
</mask>
<path d="M8.66667 16H7.33333C6.782 16 6.33333 15.5513 6.33333 15V14.4238C6.33333 14.0299 6.06989 13.6896 5.70598 13.5387C5.3417 13.3876 4.91429 13.4418 4.63548 13.7207L4.22833 14.128C3.85033 14.506 3.192 14.5053 2.814 14.128L1.871 13.1853C1.682 12.9967 1.578 12.7453 1.578 12.4783C1.578 12.2113 1.682 11.96 1.871 11.7713L2.279 11.3632C2.55751 11.0846 2.61144 10.6576 2.4606 10.2937C2.3098 9.9299 1.96978 9.66633 1.57595 9.66633H1C0.448667 9.66633 0 9.21767 0 8.66633V7.333C0 7.06567 0.104 6.81467 0.292667 6.626C0.385367 6.53286 0.495606 6.45901 0.617013 6.40872C0.73842 6.35843 0.868589 6.33269 1 6.333H1.57662C1.97036 6.333 2.31024 6.07028 2.46098 5.70654C2.61189 5.34236 2.55806 4.91466 2.27937 4.63586L1.872 4.22833C1.68469 4.04072 1.57949 3.78644 1.57949 3.52133C1.57949 3.25622 1.68469 3.00195 1.872 2.81433L2.81467 1.87133C3.19233 1.494 3.851 1.49333 4.229 1.87133L4.63694 2.27928C4.9155 2.55784 5.34243 2.61197 5.70634 2.4611C6.07003 2.31032 6.33333 1.9703 6.33333 1.57659V1C6.33333 0.448667 6.782 0 7.33333 0H8.66667C9.218 0 9.66667 0.448667 9.66667 1V1.57656C9.66667 1.9703 9.93 2.31036 10.2937 2.46117C10.6576 2.61205 11.0845 2.55786 11.363 2.2793L11.771 1.87133C12.149 1.494 12.8073 1.49333 13.1853 1.87133L14.1283 2.814C14.3173 3.00267 14.4213 3.254 14.4213 3.521C14.4213 3.788 14.3173 4.03933 14.1283 4.228L13.7209 4.63561C13.4423 4.91434 13.3883 5.34149 13.5392 5.70555C13.6901 6.06943 14.0302 6.333 14.4242 6.333H15C15.5513 6.333 16 6.78167 16 7.333V8.66633C16 8.93367 15.896 9.18467 15.7073 9.37333C15.5187 9.562 15.2673 9.66633 15 9.66633H14.4238C14.0299 9.66633 13.6896 9.9298 13.5387 10.2937C13.3878 10.6578 13.4419 11.085 13.7205 11.3637L14.128 11.7713C14.3153 11.9589 14.4205 12.2132 14.4205 12.4783C14.4205 12.7434 14.3153 12.9977 14.128 13.1853L13.1853 14.1283C12.8073 14.506 12.149 14.506 11.771 14.1283L11.3639 13.7209C11.0852 13.4421 10.6581 13.3878 10.294 13.5388C9.93027 13.6896 9.667 14.0297 9.667 14.4234V15C9.66656 15.2651 9.56102 15.5193 9.3735 15.7067C9.18599 15.8942 8.93181 15.9996 8.66667 16ZM5.05233 12.4993C5.112 12.4993 5.17233 12.5153 5.226 12.548C5.69639 12.836 6.20891 13.0487 6.745 13.1783C6.81769 13.1959 6.88235 13.2374 6.9286 13.2962C6.97485 13.3549 7 13.4276 7 13.5023V15C7 15.184 7.14967 15.3333 7.33333 15.3333H8.66667C8.85033 15.3333 9 15.184 9 15V13.5023C9 13.4276 9.02515 13.3549 9.0714 13.2962C9.11765 13.2374 9.18231 13.1959 9.255 13.1783C9.79095 13.0487 10.3034 12.8362 10.7737 12.5483C10.9057 12.468 11.0743 12.4883 11.1833 12.597L12.2427 13.6567C12.3677 13.7813 12.589 13.782 12.7143 13.6567L13.657 12.7137C13.7195 12.6512 13.7546 12.5664 13.7546 12.478C13.7546 12.3896 13.7195 12.3048 13.657 12.2423L12.5973 11.1827C12.5444 11.1298 12.5108 11.0606 12.502 10.9863C12.4932 10.912 12.5096 10.8368 12.5487 10.773C12.8365 10.3027 13.0489 9.79029 13.1783 9.25433C13.1958 9.18158 13.2373 9.11684 13.2961 9.07053C13.3549 9.02421 13.4275 8.99902 13.5023 8.999H15C15.0438 8.99918 15.0871 8.9907 15.1276 8.97405C15.1681 8.9574 15.2049 8.93291 15.2359 8.902C15.2668 8.87108 15.2914 8.83434 15.3081 8.7939C15.3249 8.75345 15.3334 8.7101 15.3333 8.66633V7.333C15.3333 7.149 15.1837 6.99967 15 6.99967H13.5023C13.4275 6.99971 13.3548 6.97454 13.296 6.92821C13.2373 6.88189 13.1958 6.81711 13.1783 6.74433C13.049 6.20836 12.8365 5.69593 12.5487 5.22567C12.5096 5.16183 12.4932 5.08671 12.502 5.0124C12.5108 4.93809 12.5444 4.86891 12.5973 4.816L13.657 3.75633C13.719 3.694 13.7547 3.60833 13.7547 3.52067C13.7547 3.433 13.719 3.347 13.657 3.285L12.714 2.34233C12.6504 2.28186 12.5659 2.24814 12.4782 2.24814C12.3904 2.24814 12.306 2.28186 12.2423 2.34233L11.1827 3.402C11.1299 3.45518 11.0607 3.48894 10.9863 3.49778C10.9119 3.50662 10.8367 3.49001 10.773 3.45067C10.3029 3.16295 9.79072 2.9505 9.255 2.821C9.18234 2.80361 9.11765 2.76225 9.07139 2.70359C9.02512 2.64492 8.99997 2.57238 9 2.49767V1C9 0.816 8.85033 0.666667 8.66667 0.666667H7.33333C7.14967 0.666667 7 0.816 7 1V2.49767C7 2.57245 6.97485 2.64506 6.9286 2.70382C6.88235 2.76259 6.81769 2.80409 6.745 2.82167C6.20906 2.95115 5.69666 3.1636 5.22633 3.45133C5.16257 3.49042 5.08749 3.50687 5.01322 3.49804C4.93895 3.48921 4.86983 3.45561 4.817 3.40267L3.75733 2.343C3.69371 2.28253 3.60928 2.24881 3.5215 2.24881C3.43372 2.24881 3.34929 2.28253 3.28567 2.343L2.34333 3.28567C2.28084 3.34818 2.24574 3.43295 2.24574 3.52133C2.24574 3.60972 2.28084 3.69449 2.34333 3.757L3.403 4.81667C3.45592 4.86958 3.4895 4.93876 3.49832 5.01307C3.50715 5.08738 3.49072 5.1625 3.45167 5.22633C3.16388 5.69651 2.95142 6.20882 2.822 6.74467C2.80449 6.81742 2.76301 6.88216 2.70424 6.92847C2.64547 6.97479 2.57283 6.99998 2.498 7H1C0.956205 6.99982 0.912808 7.00832 0.872308 7.02498C0.831808 7.04165 0.795007 7.06617 0.764023 7.09712C0.73304 7.12807 0.708486 7.16485 0.691777 7.20533C0.675068 7.24582 0.666534 7.2892 0.666667 7.333V8.66633C0.666667 8.85033 0.816333 8.99967 1 8.99967H2.49767C2.65167 8.99967 2.78567 9.105 2.82167 9.255C2.95114 9.79083 3.1636 10.3031 3.45133 10.7733C3.49038 10.8372 3.50682 10.9123 3.49799 10.9866C3.48916 11.0609 3.45559 11.1301 3.40267 11.183L2.343 12.243C2.281 12.3053 2.24533 12.391 2.24533 12.4787C2.24533 12.5663 2.281 12.6523 2.343 12.7143L3.286 13.657C3.34963 13.7175 3.43405 13.7512 3.52183 13.7512C3.60961 13.7512 3.69404 13.7175 3.75767 13.657L4.817 12.5973C4.84777 12.5662 4.88442 12.5415 4.92482 12.5247C4.96522 12.5079 5.00857 12.4992 5.05233 12.4993Z" fill="black"/>
<path d="M8.66667 16H7.33333C6.782 16 6.33333 15.5513 6.33333 15V14.4238C6.33333 14.0299 6.06989 13.6896 5.70598 13.5387C5.3417 13.3876 4.91429 13.4418 4.63548 13.7207L4.22833 14.128C3.85033 14.506 3.192 14.5053 2.814 14.128L1.871 13.1853C1.682 12.9967 1.578 12.7453 1.578 12.4783C1.578 12.2113 1.682 11.96 1.871 11.7713L2.279 11.3632C2.55751 11.0846 2.61144 10.6576 2.4606 10.2937C2.3098 9.9299 1.96978 9.66633 1.57595 9.66633H1C0.448667 9.66633 0 9.21767 0 8.66633V7.333C0 7.06567 0.104 6.81467 0.292667 6.626C0.385367 6.53286 0.495606 6.45901 0.617013 6.40872C0.73842 6.35843 0.868589 6.33269 1 6.333H1.57662C1.97036 6.333 2.31024 6.07028 2.46098 5.70654C2.61189 5.34236 2.55806 4.91466 2.27937 4.63586L1.872 4.22833C1.68469 4.04072 1.57949 3.78644 1.57949 3.52133C1.57949 3.25622 1.68469 3.00195 1.872 2.81433L2.81467 1.87133C3.19233 1.494 3.851 1.49333 4.229 1.87133L4.63694 2.27928C4.9155 2.55784 5.34243 2.61197 5.70634 2.4611C6.07003 2.31032 6.33333 1.9703 6.33333 1.57659V1C6.33333 0.448667 6.782 0 7.33333 0H8.66667C9.218 0 9.66667 0.448667 9.66667 1V1.57656C9.66667 1.9703 9.93 2.31036 10.2937 2.46117C10.6576 2.61205 11.0845 2.55786 11.363 2.2793L11.771 1.87133C12.149 1.494 12.8073 1.49333 13.1853 1.87133L14.1283 2.814C14.3173 3.00267 14.4213 3.254 14.4213 3.521C14.4213 3.788 14.3173 4.03933 14.1283 4.228L13.7209 4.63561C13.4423 4.91434 13.3883 5.34149 13.5392 5.70555C13.6901 6.06943 14.0302 6.333 14.4242 6.333H15C15.5513 6.333 16 6.78167 16 7.333V8.66633C16 8.93367 15.896 9.18467 15.7073 9.37333C15.5187 9.562 15.2673 9.66633 15 9.66633H14.4238C14.0299 9.66633 13.6896 9.9298 13.5387 10.2937C13.3878 10.6578 13.4419 11.085 13.7205 11.3637L14.128 11.7713C14.3153 11.9589 14.4205 12.2132 14.4205 12.4783C14.4205 12.7434 14.3153 12.9977 14.128 13.1853L13.1853 14.1283C12.8073 14.506 12.149 14.506 11.771 14.1283L11.3639 13.7209C11.0852 13.4421 10.6581 13.3878 10.294 13.5388C9.93027 13.6896 9.667 14.0297 9.667 14.4234V15C9.66656 15.2651 9.56102 15.5193 9.3735 15.7067C9.18599 15.8942 8.93181 15.9996 8.66667 16ZM5.05233 12.4993C5.112 12.4993 5.17233 12.5153 5.226 12.548C5.69639 12.836 6.20891 13.0487 6.745 13.1783C6.81769 13.1959 6.88235 13.2374 6.9286 13.2962C6.97485 13.3549 7 13.4276 7 13.5023V15C7 15.184 7.14967 15.3333 7.33333 15.3333H8.66667C8.85033 15.3333 9 15.184 9 15V13.5023C9 13.4276 9.02515 13.3549 9.0714 13.2962C9.11765 13.2374 9.18231 13.1959 9.255 13.1783C9.79095 13.0487 10.3034 12.8362 10.7737 12.5483C10.9057 12.468 11.0743 12.4883 11.1833 12.597L12.2427 13.6567C12.3677 13.7813 12.589 13.782 12.7143 13.6567L13.657 12.7137C13.7195 12.6512 13.7546 12.5664 13.7546 12.478C13.7546 12.3896 13.7195 12.3048 13.657 12.2423L12.5973 11.1827C12.5444 11.1298 12.5108 11.0606 12.502 10.9863C12.4932 10.912 12.5096 10.8368 12.5487 10.773C12.8365 10.3027 13.0489 9.79029 13.1783 9.25433C13.1958 9.18158 13.2373 9.11684 13.2961 9.07053C13.3549 9.02421 13.4275 8.99902 13.5023 8.999H15C15.0438 8.99918 15.0871 8.9907 15.1276 8.97405C15.1681 8.9574 15.2049 8.93291 15.2359 8.902C15.2668 8.87108 15.2914 8.83434 15.3081 8.7939C15.3249 8.75345 15.3334 8.7101 15.3333 8.66633V7.333C15.3333 7.149 15.1837 6.99967 15 6.99967H13.5023C13.4275 6.99971 13.3548 6.97454 13.296 6.92821C13.2373 6.88189 13.1958 6.81711 13.1783 6.74433C13.049 6.20836 12.8365 5.69593 12.5487 5.22567C12.5096 5.16183 12.4932 5.08671 12.502 5.0124C12.5108 4.93809 12.5444 4.86891 12.5973 4.816L13.657 3.75633C13.719 3.694 13.7547 3.60833 13.7547 3.52067C13.7547 3.433 13.719 3.347 13.657 3.285L12.714 2.34233C12.6504 2.28186 12.5659 2.24814 12.4782 2.24814C12.3904 2.24814 12.306 2.28186 12.2423 2.34233L11.1827 3.402C11.1299 3.45518 11.0607 3.48894 10.9863 3.49778C10.9119 3.50662 10.8367 3.49001 10.773 3.45067C10.3029 3.16295 9.79072 2.9505 9.255 2.821C9.18234 2.80361 9.11765 2.76225 9.07139 2.70359C9.02512 2.64492 8.99997 2.57238 9 2.49767V1C9 0.816 8.85033 0.666667 8.66667 0.666667H7.33333C7.14967 0.666667 7 0.816 7 1V2.49767C7 2.57245 6.97485 2.64506 6.9286 2.70382C6.88235 2.76259 6.81769 2.80409 6.745 2.82167C6.20906 2.95115 5.69666 3.1636 5.22633 3.45133C5.16257 3.49042 5.08749 3.50687 5.01322 3.49804C4.93895 3.48921 4.86983 3.45561 4.817 3.40267L3.75733 2.343C3.69371 2.28253 3.60928 2.24881 3.5215 2.24881C3.43372 2.24881 3.34929 2.28253 3.28567 2.343L2.34333 3.28567C2.28084 3.34818 2.24574 3.43295 2.24574 3.52133C2.24574 3.60972 2.28084 3.69449 2.34333 3.757L3.403 4.81667C3.45592 4.86958 3.4895 4.93876 3.49832 5.01307C3.50715 5.08738 3.49072 5.1625 3.45167 5.22633C3.16388 5.69651 2.95142 6.20882 2.822 6.74467C2.80449 6.81742 2.76301 6.88216 2.70424 6.92847C2.64547 6.97479 2.57283 6.99998 2.498 7H1C0.956205 6.99982 0.912808 7.00832 0.872308 7.02498C0.831808 7.04165 0.795007 7.06617 0.764023 7.09712C0.73304 7.12807 0.708486 7.16485 0.691777 7.20533C0.675068 7.24582 0.666534 7.2892 0.666667 7.333V8.66633C0.666667 8.85033 0.816333 8.99967 1 8.99967H2.49767C2.65167 8.99967 2.78567 9.105 2.82167 9.255C2.95114 9.79083 3.1636 10.3031 3.45133 10.7733C3.49038 10.8372 3.50682 10.9123 3.49799 10.9866C3.48916 11.0609 3.45559 11.1301 3.40267 11.183L2.343 12.243C2.281 12.3053 2.24533 12.391 2.24533 12.4787C2.24533 12.5663 2.281 12.6523 2.343 12.7143L3.286 13.657C3.34963 13.7175 3.43405 13.7512 3.52183 13.7512C3.60961 13.7512 3.69404 13.7175 3.75767 13.657L4.817 12.5973C4.84777 12.5662 4.88442 12.5415 4.92482 12.5247C4.96522 12.5079 5.00857 12.4992 5.05233 12.4993Z" stroke="black" stroke-width="0.4" mask="url(#path-1-outside-1_68_51)"/>
<path d="M4.56669 8.00002C4.56669 9.89325 6.10679 11.4334 8.00002 11.4334C9.89359 11.4334 11.4334 9.89324 11.4334 8.00002C11.4334 6.10679 9.89325 4.56669 8.00002 4.56669C6.10679 4.56669 4.56669 6.10679 4.56669 8.00002ZM5.43335 8.00002C5.43335 6.58492 6.58492 5.43335 8.00002 5.43335C9.41545 5.43335 10.5667 6.58491 10.5667 8.00002C10.5667 9.41512 9.41512 10.5667 8.00002 10.5667C6.58492 10.5667 5.43335 9.41512 5.43335 8.00002Z" fill="black" stroke="black" stroke-width="0.2"/>
</g>
<defs>
<clipPath id="clip0_68_51">
<rect width="16" height="16" fill="white"/>
</clipPath>
</defs>
</svg>
