<svg width="15" height="15" viewBox="0 0 15 15" fill="none" xmlns="http://www.w3.org/2000/svg">
<path d="M1.60714 12.8571C1.18103 12.8567 0.772497 12.6872 0.471191 12.3859C0.169886 12.0846 0.000425472 11.6761 0 11.2499V8.57138C0 8.14514 0.169324 7.73635 0.470721 7.43495C0.772119 7.13356 1.1809 6.96423 1.60714 6.96423C2.03338 6.96423 2.44217 7.13356 2.74356 7.43495C3.04496 7.73635 3.21429 8.14514 3.21429 8.57138V11.2499C3.21386 11.6761 3.0444 12.0846 2.74309 12.3859C2.44179 12.6872 2.03325 12.8567 1.60714 12.8571ZM1.60714 8.03566C1.46506 8.03566 1.3288 8.0921 1.22834 8.19257C1.12787 8.29303 1.07143 8.4293 1.07143 8.57138V11.2499C1.07143 11.392 1.12787 11.5283 1.22834 11.6288C1.3288 11.7292 1.46506 11.7857 1.60714 11.7857C1.74922 11.7857 1.88548 11.7292 1.98595 11.6288C2.08642 11.5283 2.14286 11.392 2.14286 11.2499V8.57138C2.14286 8.4293 2.08642 8.29303 1.98595 8.19257C1.88548 8.0921 1.74922 8.03566 1.60714 8.03566ZM13.3929 12.8571C12.9667 12.8567 12.5582 12.6872 12.2569 12.3859C11.9556 12.0846 11.7861 11.6761 11.7857 11.2499V8.57138C11.7857 8.14514 11.955 7.73635 12.2564 7.43495C12.5578 7.13356 12.9666 6.96423 13.3929 6.96423C13.8191 6.96423 14.2279 7.13356 14.5293 7.43495C14.8307 7.73635 15 8.14514 15 8.57138V11.2499C14.9996 11.6761 14.8301 12.0846 14.5288 12.3859C14.2275 12.6872 13.819 12.8567 13.3929 12.8571ZM13.3929 8.03566C13.2508 8.03566 13.1145 8.0921 13.014 8.19257C12.9136 8.29303 12.8571 8.4293 12.8571 8.57138V11.2499C12.8571 11.392 12.9136 11.5283 13.014 11.6288C13.1145 11.7292 13.2508 11.7857 13.3929 11.7857C13.5349 11.7857 13.6712 11.7292 13.7717 11.6288C13.8721 11.5283 13.9286 11.392 13.9286 11.2499V8.57138C13.9286 8.4293 13.8721 8.29303 13.7717 8.19257C13.6712 8.0921 13.5349 8.03566 13.3929 8.03566Z" fill="black" fill-opacity="0.69"/>
<path d="M13.3928 8.03571C13.2508 8.03571 13.1145 7.97927 13.014 7.87881C12.9136 7.77834 12.8571 7.64208 12.8571 7.5V6.42857C12.8571 5.00777 12.2927 3.64516 11.2881 2.6405C10.2834 1.63584 8.92079 1.07143 7.49998 1.07143C6.07918 1.07143 4.71657 1.63584 3.71191 2.6405C2.70725 3.64516 2.14284 5.00777 2.14284 6.42857V7.5C2.14284 7.64208 2.0864 7.77834 1.98593 7.87881C1.88547 7.97927 1.74921 8.03571 1.60713 8.03571C1.46505 8.03571 1.32878 7.97927 1.22832 7.87881C1.12785 7.77834 1.07141 7.64208 1.07141 7.5V6.42857C1.07141 4.72361 1.74871 3.08848 2.9543 1.88288C4.15989 0.677294 5.79502 0 7.49998 0C9.20495 0 10.8401 0.677294 12.0457 1.88288C13.2513 3.08848 13.9286 4.72361 13.9286 6.42857V7.5C13.9286 7.64208 13.8721 7.77834 13.7716 7.87881C13.6712 7.97927 13.5349 8.03571 13.3928 8.03571ZM12.3214 15H7.49998C7.3579 15 7.22164 14.9436 7.12118 14.8431C7.02071 14.7426 6.96427 14.6064 6.96427 14.4643C6.96427 14.3222 7.02071 14.1859 7.12118 14.0855C7.22164 13.985 7.3579 13.9286 7.49998 13.9286H12.3214C12.4635 13.9286 12.5998 13.8721 12.7002 13.7717C12.8007 13.6712 12.8571 13.5349 12.8571 13.3929V12.3214C12.8571 12.1793 12.9136 12.0431 13.014 11.9426C13.1145 11.8422 13.2508 11.7857 13.3928 11.7857C13.5349 11.7857 13.6712 11.8422 13.7716 11.9426C13.8721 12.0431 13.9286 12.1793 13.9286 12.3214V13.3929C13.9281 13.819 13.7587 14.2275 13.4574 14.5288C13.1561 14.8301 12.7475 14.9996 12.3214 15Z" fill="black" fill-opacity="0.69"/>
</svg>
