<svg width="16" height="16" viewBox="0 0 16 16" fill="none" xmlns="http://www.w3.org/2000/svg">
<path d="M15.6462 2.39143H5.67005C5.47466 2.39143 5.31628 2.17641 5.31628 1.91117C5.31628 1.64592 5.47466 1.43091 5.67005 1.43091H15.6462C15.8416 1.43091 16 1.64592 16 1.91117C16 2.17641 15.8416 2.39143 15.6462 2.39143Z" fill="black"/>
<path d="M2.21619 9.95208C1.24858 9.95208 0.461365 9.05803 0.461365 7.9591C0.461365 6.86018 1.24858 5.96613 2.21619 5.96613C3.1838 5.96613 3.97101 6.86018 3.97101 7.9591C3.97101 9.05803 3.1838 9.95208 2.21619 9.95208ZM2.21619 6.92664C1.71492 6.92664 1.3071 7.38981 1.3071 7.9591C1.3071 8.5284 1.71492 8.99157 2.21619 8.99157C2.71746 8.99157 3.12527 8.5284 3.12527 7.9591C3.12527 7.38981 2.71746 6.92664 2.21619 6.92664Z" fill="black"/>
<path d="M15.6462 8.43934H5.67005C5.47466 8.43934 5.31628 8.22428 5.31628 7.95908C5.31628 7.69383 5.47466 7.47882 5.67005 7.47882H15.6462C15.8416 7.47882 16 7.69383 16 7.95908C16 8.22428 15.8416 8.43934 15.6462 8.43934Z" fill="black"/>
<path d="M2.21619 16C1.24858 16 0.461365 15.1059 0.461365 14.007C0.461365 12.9081 1.24854 12.014 2.21619 12.014C3.18384 12.014 3.97101 12.9081 3.97101 14.007C3.97101 15.1059 3.1838 16 2.21619 16ZM2.21619 12.9746C1.71492 12.9746 1.3071 13.4377 1.3071 14.007C1.3071 14.5763 1.71492 15.0395 2.21619 15.0395C2.71746 15.0395 3.12527 14.5763 3.12527 14.007C3.12527 13.4377 2.71746 12.9746 2.21619 12.9746Z" fill="black"/>
<path d="M15.6462 14.4873H5.67005C5.47466 14.4873 5.31628 14.2722 5.31628 14.007C5.31628 13.7418 5.47466 13.5267 5.67005 13.5267H15.6462C15.8416 13.5267 16 13.7418 16 14.007C16 14.2722 15.8416 14.4873 15.6462 14.4873Z" fill="black"/>
<path d="M1.48963 3.8223C1.37749 3.8223 1.26991 3.77168 1.19062 3.68164L0.123848 2.47004C-0.0412826 2.2825 -0.0412826 1.9784 0.123848 1.79086C0.288978 1.60336 0.556697 1.60332 0.72187 1.79086L1.48963 2.66282L3.71037 0.140638C3.8755 -0.0468553 4.14326 -0.0469033 4.30839 0.140638C4.47352 0.328179 4.47352 0.632279 4.30839 0.819869L1.78864 3.68164C1.70935 3.77168 1.60182 3.8223 1.48963 3.8223Z" fill="black"/>
</svg>
