<svg width="16" height="16" viewBox="0 0 16 16" fill="none" xmlns="http://www.w3.org/2000/svg">
<path d="M14.1133 1.37331C13.6354 1.291 13.1515 1.24863 12.6666 1.24665C11.0122 1.24529 9.3923 1.71969 7.99998 2.61331C6.60407 1.73143 4.98441 1.26867 3.33331 1.27998C2.84841 1.28197 2.36451 1.32433 1.88664 1.40665C1.73011 1.43363 1.58836 1.51562 1.48692 1.63784C1.38547 1.76006 1.331 1.91449 1.33331 2.07331V10.0733C1.33188 10.1713 1.35206 10.2683 1.39241 10.3576C1.43276 10.4469 1.49229 10.5262 1.56676 10.5898C1.64123 10.6535 1.72881 10.6999 1.82328 10.7259C1.91774 10.7518 2.01677 10.7566 2.11331 10.74C3.06865 10.5746 4.04744 10.602 4.99202 10.8207C5.9366 11.0394 6.82786 11.4449 7.61331 12.0133L7.69331 12.06H7.76664C7.84058 12.0908 7.91988 12.1066 7.99998 12.1066C8.08007 12.1066 8.15937 12.0908 8.23331 12.06H8.30664L8.38664 12.0133C9.16661 11.4322 10.0553 11.0135 11.0001 10.7822C11.9448 10.5509 12.9264 10.5116 13.8866 10.6666C13.9832 10.6833 14.0822 10.6785 14.1767 10.6525C14.2711 10.6266 14.3587 10.5801 14.4332 10.5165C14.5077 10.4528 14.5672 10.3735 14.6075 10.2843C14.6479 10.195 14.6681 10.0979 14.6666 9.99998V1.99998C14.6597 1.84808 14.601 1.70312 14.5004 1.58914C14.3998 1.47516 14.2632 1.399 14.1133 1.37331ZM7.33331 10.2333C6.0999 9.58444 4.72699 9.24579 3.33331 9.24665C3.11331 9.24665 2.89331 9.24665 2.66664 9.24665V2.57998C2.88868 2.56718 3.11127 2.56718 3.33331 2.57998C4.75557 2.57841 6.14678 2.99577 7.33331 3.77998V10.2333ZM13.3333 9.27331C13.1066 9.27331 12.8866 9.27331 12.6666 9.27331C11.273 9.27246 9.90005 9.61111 8.66664 10.26V3.77998C9.85317 2.99577 11.2444 2.57841 12.6666 2.57998C12.8887 2.56718 13.1113 2.56718 13.3333 2.57998V9.27331ZM14.1133 12.04C13.6354 11.9577 13.1515 11.9153 12.6666 11.9133C11.0122 11.912 9.3923 12.3864 7.99998 13.28C6.60765 12.3864 4.98773 11.912 3.33331 11.9133C2.84841 11.9153 2.36451 11.9577 1.88664 12.04C1.79986 12.0538 1.71666 12.0845 1.64182 12.1306C1.56698 12.1766 1.50198 12.237 1.45055 12.3083C1.39913 12.3795 1.3623 12.4602 1.34218 12.5457C1.32206 12.6313 1.31904 12.7199 1.33331 12.8066C1.36719 12.9798 1.4683 13.1324 1.6145 13.2311C1.7607 13.3298 1.94007 13.3666 2.11331 13.3333C3.06865 13.1679 4.04744 13.1954 4.99202 13.414C5.9366 13.6327 6.82786 14.0382 7.61331 14.6066C7.72622 14.687 7.86137 14.7302 7.99998 14.7302C8.13858 14.7302 8.27373 14.687 8.38664 14.6066C9.17209 14.0382 10.0634 13.6327 11.0079 13.414C11.9525 13.1954 12.9313 13.1679 13.8866 13.3333C14.0599 13.3666 14.2392 13.3298 14.3854 13.2311C14.5316 13.1324 14.6328 12.9798 14.6666 12.8066C14.6809 12.7199 14.6779 12.6313 14.6578 12.5457C14.6377 12.4602 14.6008 12.3795 14.5494 12.3083C14.498 12.237 14.433 12.1766 14.3581 12.1306C14.2833 12.0845 14.2001 12.0538 14.1133 12.04Z" fill="black"/>
</svg>
